<svg xmlns="http://www.w3.org/2000/svg" viewBox="0 0 346.54 369.32"><defs><style>.cls-1{isolation:isolate;}.cls-2{fill:#eaf9f8;}.cls-3{fill:#d86a3f;}.cls-4{fill:#fe8a50;}.cls-5{fill:#ffc947;}.cls-6{fill:#64c0a2;}.cls-7{fill:#fff;}.cls-8{fill:#3a1f48;}.cls-9{fill:#ff6224;}.cls-10{fill:#20c3c5;}.cls-11{fill:#bcaf9f;}.cls-12{fill:#e2dcd4;}.cls-13{fill:#c9c3bc;}.cls-14{fill:#383873;}.cls-15,.cls-24,.cls-25{fill:none;stroke:#000;stroke-linecap:round;stroke-miterlimit:10;stroke-width:0.82px;}.cls-15,.cls-21{opacity:0.15;}.cls-15,.cls-18,.cls-21,.cls-23,.cls-26{mix-blend-mode:overlay;}.cls-16{fill:#382424;}.cls-17{fill:#ffad94;}.cls-18,.cls-23{opacity:0.25;}.cls-19{fill:#0c2059;}.cls-20{fill:#2e4780;}.cls-22{fill:#539b81;}.cls-25{stroke-dasharray:4.15 4.15;}.cls-26{opacity:0.53;}.cls-27{fill:#5fcea6;}</style></defs><title>Asset 1</title><g class="cls-1"><g id="Layer_2" data-name="Layer 2"><g id="OBJECTS"><path class="cls-2" d="M337.53,172c-23.35,34.95-73.16,143-60.91,183.15l-178.7,0S72.09,335.93,47,302.51c-4.56-6.08-9.1-12.63-13.44-19.61a245.78,245.78,0,0,1-13-23.63C8.91,235.05.61,207,.28,176-.89,68.63,92-31.14,218.42,9.12S360.86,137,337.53,172Z"/><path class="cls-3" d="M225.71,356.38a1.22,1.22,0,0,1-1-.46l-95.3-118.49a1.23,1.23,0,1,1,1.92-1.54l95.3,118.5a1.22,1.22,0,0,1-.19,1.72A1.25,1.25,0,0,1,225.71,356.38Z"/><path class="cls-4" d="M77.88,356.38a1.25,1.25,0,0,1-.77-.27,1.22,1.22,0,0,1-.19-1.72l95.31-118.5a1.22,1.22,0,0,1,1.72-.19,1.24,1.24,0,0,1,.19,1.73L78.84,355.92A1.22,1.22,0,0,1,77.88,356.38Z"/><path class="cls-4" d="M173.18,356.38a1.18,1.18,0,0,1-1-.46L76.92,237.43a1.23,1.23,0,1,1,1.92-1.54l95.3,118.5a1.23,1.23,0,0,1-1,2Z"/><path class="cls-3" d="M94.77,239.81H50.49a3.14,3.14,0,0,1-3.14-3.15h0a3.13,3.13,0,0,1,3.14-3.14H94.77a3.14,3.14,0,0,1,3.14,3.14h0A3.15,3.15,0,0,1,94.77,239.81Z"/><path class="cls-4" d="M222.16,239.81H95.61a3.15,3.15,0,0,1-3.14-3.15h0a3.14,3.14,0,0,1,3.14-3.14H222.16Z"/><path class="cls-3" d="M129,295.91a3.44,3.44,0,1,1-3.44-3.44A3.43,3.43,0,0,1,129,295.91Z"/><path class="cls-5" d="M181.5,295.91a3.44,3.44,0,1,1-3.44-3.44A3.43,3.43,0,0,1,181.5,295.91Z"/><rect class="cls-6" x="87.18" y="98.45" width="52.58" height="41.15" rx="3.99"/><path class="cls-7" d="M124.88,116.62h-1.65a9.94,9.94,0,0,0-1.11-2.54l1.27-1.27a1.24,1.24,0,0,0,0-1.76l-1.79-1.8a1.26,1.26,0,0,0-1.76,0l-1.35,1.36a10.06,10.06,0,0,0-2.4-1v-2a1.25,1.25,0,0,0-1.24-1.24h-2.54a1.24,1.24,0,0,0-1.24,1.24v2.06a10,10,0,0,0-2.33.92l-1.49-1.49a1.24,1.24,0,0,0-1.75,0l-1.8,1.8a1.24,1.24,0,0,0,0,1.75l1.38,1.38a9.87,9.87,0,0,0-1.08,2.38h-1.94a1.23,1.23,0,0,0-1.24,1.24v2.53a1.24,1.24,0,0,0,1.24,1.25h1.7a9.75,9.75,0,0,0,.95,2.65l-1.16,1.16a1.26,1.26,0,0,0,0,1.76l1.8,1.79a1.23,1.23,0,0,0,1.75,0l1-1a10.29,10.29,0,0,0,2.74,1.24v1.4a1.25,1.25,0,0,0,1.25,1.25h2.53a1.25,1.25,0,0,0,1.25-1.25v-1.31a9.8,9.8,0,0,0,2.84-1.15l1,1a1.24,1.24,0,0,0,1.76,0l1.79-1.79a1.24,1.24,0,0,0,0-1.76l-1-1a10.19,10.19,0,0,0,1.09-2.76h1.54a1.25,1.25,0,0,0,1.25-1.24v-2.54A1.25,1.25,0,0,0,124.88,116.62Zm-10,9a6.39,6.39,0,1,1,5-5A6.4,6.4,0,0,1,114.83,125.64Z"/><rect class="cls-4" x="154.34" y="75.72" width="52.58" height="41.15" rx="3.99"/><path class="cls-7" d="M171.75,103.21a1.19,1.19,0,0,1-.87-.39l-5.54-5.93a1.38,1.38,0,0,1,0-1.86L171,89a1.17,1.17,0,0,1,1.73,0,1.38,1.38,0,0,1,0,1.86L167.94,96l4.68,5a1.37,1.37,0,0,1,0,1.85A1.19,1.19,0,0,1,171.75,103.21Z"/><path class="cls-7" d="M189.51,103.21a1.17,1.17,0,0,1-.87-.39,1.37,1.37,0,0,1,0-1.85l4.67-5-4.77-5.1a1.38,1.38,0,0,1,0-1.86,1.18,1.18,0,0,1,1.74,0l5.64,6a1.38,1.38,0,0,1,0,1.86l-5.55,5.93A1.17,1.17,0,0,1,189.51,103.21Z"/><path class="cls-7" d="M177.88,104.84a1.14,1.14,0,0,1-.47-.1,1.35,1.35,0,0,1-.67-1.71l5.5-14.46a1.2,1.2,0,0,1,1.6-.73,1.36,1.36,0,0,1,.68,1.72L179,104A1.22,1.22,0,0,1,177.88,104.84Z"/><path class="cls-7" d="M134.18,119.72H241.54a1.66,1.66,0,0,1,1.66,1.66v3.4a0,0,0,0,1,0,0H132.52a0,0,0,0,1,0,0v-3.4A1.66,1.66,0,0,1,134.18,119.72Z"/><path class="cls-8" d="M132.52,124.77H243.2a0,0,0,0,1,0,0v55.92a3.09,3.09,0,0,1-3.09,3.09H135.61a3.09,3.09,0,0,1-3.09-3.09V124.77A0,0,0,0,1,132.52,124.77Z"/><path class="cls-4" d="M237.88,122.24a.77.77,0,0,1-.77.78.78.78,0,1,1,0-1.55A.77.77,0,0,1,237.88,122.24Z"/><path class="cls-4" d="M232.54,122.24a.78.78,0,1,1-.78-.77A.78.78,0,0,1,232.54,122.24Z"/><path class="cls-4" d="M227.19,122.24a.78.78,0,1,1-.78-.77A.78.78,0,0,1,227.19,122.24Z"/><path class="cls-6" d="M199.72,132.75H138.26a1.07,1.07,0,0,1-1.07-1.07h0a1.07,1.07,0,0,1,1.07-1.07h61.46a1.07,1.07,0,0,1,1.07,1.07h0A1.07,1.07,0,0,1,199.72,132.75Z"/><path class="cls-6" d="M199.72,139.55H138.26a1.06,1.06,0,0,1-1.07-1.07h0a1.06,1.06,0,0,1,1.07-1.06h61.46a1.06,1.06,0,0,1,1.07,1.06h0A1.06,1.06,0,0,1,199.72,139.55Z"/><path class="cls-6" d="M170.4,146.36H138.26a1.07,1.07,0,0,1-1.07-1.07h0a1.07,1.07,0,0,1,1.07-1.07H170.4a1.07,1.07,0,0,1,1.07,1.07h0A1.07,1.07,0,0,1,170.4,146.36Z"/><path class="cls-4" d="M199.72,160H138.26a1.07,1.07,0,0,1-1.07-1.07h0a1.07,1.07,0,0,1,1.07-1.07h61.46a1.07,1.07,0,0,1,1.07,1.07h0A1.07,1.07,0,0,1,199.72,160Z"/><path class="cls-4" d="M170.4,166.78H138.26a1.07,1.07,0,0,1-1.07-1.07h0a1.07,1.07,0,0,1,1.07-1.07H170.4a1.07,1.07,0,0,1,1.07,1.07h0A1.07,1.07,0,0,1,170.4,166.78Z"/><path class="cls-6" d="M170.4,173.59H138.26a1.07,1.07,0,0,1-1.07-1.07h0a1.07,1.07,0,0,1,1.07-1.07H170.4a1.07,1.07,0,0,1,1.07,1.07h0A1.07,1.07,0,0,1,170.4,173.59Z"/><path class="cls-7" d="M199.72,146.36h-23.1a1.07,1.07,0,0,1-1.07-1.07h0a1.07,1.07,0,0,1,1.07-1.07h23.1a1.07,1.07,0,0,1,1.07,1.07h0A1.07,1.07,0,0,1,199.72,146.36Z"/><path class="cls-4" d="M230.22,131.08l-16.33,16.33a1.08,1.08,0,0,1-1.51,0h0a1.07,1.07,0,0,1,0-1.52l16.33-16.33a1.08,1.08,0,0,1,1.51,0h0A1.07,1.07,0,0,1,230.22,131.08Z"/><circle class="cls-9" cx="221.3" cy="161.97" r="9.63" transform="translate(12.65 339.93) rotate(-76.66)"/><path class="cls-10" d="M220,168.68a5.45,5.45,0,1,1-5.45-5.45A5.45,5.45,0,0,1,220,168.68Z"/><polyline class="cls-8" points="132.52 177.81 132.52 197.28 150.41 179.38"/><polygon class="cls-11" points="113.47 202.54 152.74 202.54 166.93 229.87 127.67 229.87 113.47 202.54"/><path class="cls-7" d="M128.46,227.85l-11.75-22.63a.71.71,0,0,1,.63-1h34a.72.72,0,0,1,.63.38l11.76,22.63a.72.72,0,0,1-.64,1h-34A.74.74,0,0,1,128.46,227.85Z"/><rect class="cls-12" x="127.67" y="229.87" width="31.8" height="3.65"/><path class="cls-13" d="M186.79,229.87H155.41a1.81,1.81,0,0,0-1.82,1.82h0a1.82,1.82,0,0,0,1.82,1.83h31.38a1.82,1.82,0,0,0,1.82-1.83h0A1.81,1.81,0,0,0,186.79,229.87Z"/><path class="cls-12" d="M127.67,229.87l-14.2-27.33-.71.54a1.16,1.16,0,0,0-.33,1.48l15.24,29Z"/><rect class="cls-13" x="138.46" y="231.57" width="3.5" height="0.61"/><rect class="cls-13" x="142.86" y="231.57" width="3.5" height="0.61"/><rect class="cls-13" x="147.27" y="231.57" width="3.5" height="0.61"/><path class="cls-14" d="M199.25,283.35s-32.57,25.36-37.73,31.8c-2,2.44-5.35,6.71-8.86,11.09-5.78,7.2-11.91,14.69-12.64,14.87-1.16.3-10.94-7.14-11.23-8.75-.18-1,8.72-16.27,16.42-28.55,4.69-7.46,8.93-13.83,10.42-15.2,3.93-3.65,28.16-16.49,28.16-16.49Z"/><path class="cls-15" d="M137.1,335.7s30.43-43.3,45.7-50.6"/><path class="cls-16" d="M233.19,172.15c-.34.79-.73,1.61-1.17,2.44-2.39,4.55-.63,9.11-3.34,10.28a4,4,0,0,1-.55.17c-3.51.77-11.58-3.89-11.93-6.22s2.49-6.33,0-6.81-3.83,3.7-3.83,3.7c-2,.21-2.77-3.22-6.13-3.22a5.89,5.89,0,0,0-1.39.18,10,10,0,0,0-3.85,2.12,10.87,10.87,0,0,0-1,1,6.65,6.65,0,0,1-2.85-5.61c.24-5.9,2.42-10.21,7.66-11.08.59-6.57,6-10.07,13.21-10.29,6.32-.2,7.27,5.49,7.42,6.9a15.87,15.87,0,0,0-1.86-6.9c3.17-.14,6,2.12,5.23,9.48.73-2.19,3.28-3.57,5.25-2-1.82,0-3.57,3.06-3.57,3.06a12.31,12.31,0,0,1,3.59,3.9C235.26,165.34,234.81,168.43,233.19,172.15Z"/><path class="cls-17" d="M228.68,184.87l-.09,1.08-.27,3.83s-5.83,5-9.14,0a.36.36,0,0,0-.07-.1c-1-1.52-2-2.06-2.79-2.15-1.83-.23-3.3,1.56-4.82-.37a37.15,37.15,0,0,1-6.65-14.49,5.89,5.89,0,0,1,1.39-.18c3.36,0,4.09,3.43,6.13,3.22,0,0,1.34-4.19,3.83-3.7s-.35,4.47,0,6.81c.16,1,1.85,2.54,4,3.82,2.49,1.5,5.6,2.68,7.58,2.45l.35-.05A4,4,0,0,0,228.68,184.87Z"/><path class="cls-18" d="M229.58,192c-2.62,1.8-7.44,2.09-7.44,2.09l-3.93-.58s-1.65-2.39-.88-3.72a4.5,4.5,0,0,1,1-1.05,28.47,28.47,0,0,1,4.52-2.9,14.69,14.69,0,0,1,5-1.77C231.24,183.87,232.21,190.19,229.58,192Z"/><path class="cls-6" d="M228.81,255.84c-5.86,1.13-18.26-2.33-24.2-5-1.75-.78-2.94-1.5-3.23-2-1.14-2,0-3.54,2.83-9.91q.48-1.08,1-2.34c1.91-4.51,1.92-14.13,1.91-22.42,0-7.1-.06-13.22,1.07-14.31,2.45-2.36,14.66-10.07,14.66-10.07l2.43,12.67s1.38,6.43,2.83,14.83C230.8,232.74,233.73,254.89,228.81,255.84Z"/><path class="cls-14" d="M232.89,261.47c0,.59-5.83,14.2-10.73,16.15s-34.39-.2-34.39-.2L173.18,287l3.06,28.73,2.12,20,.07.65c-4.46,2.91-15.7,3.7-16.91,1.19v0c-1.17-2.53-19.06-56.4-12-65.74s51.92-22.95,51.92-22.95a24.59,24.59,0,0,0,4,2,76.74,76.74,0,0,0,16.17,4.09c1.85.28,3.48.5,4.73.64,1.57.19,2.52.27,2.52.27S232.89,260.89,232.89,261.47Z"/><path class="cls-19" d="M180.28,355.12H142.35a2.24,2.24,0,0,1,.64-2c1.54-1.85,5.39-3.71,9.11-5.31,3.53-1.53,6.92-2.83,8.05-3.74,2.68-2.12,1.44-6.24,1.37-6.49.41.84,2,1.31,4,1.45,4,.29,9.95-.71,12.91-2.64l-.07-.65c1.13,2.16,1.67,12.84,1.85,17.38C180.25,354.33,180.28,355.12,180.28,355.12Z"/><path class="cls-20" d="M165.52,339c-.11,1.81-.37,4.74-.9,5.53-.78,1.17-9.14,5.25-10.3,4.86a6.92,6.92,0,0,1-2.22-1.61c3.53-1.53,6.92-2.83,8.05-3.74,2.68-2.12,1.44-6.24,1.37-6.49C161.93,338.38,163.48,338.85,165.52,339Z"/><path class="cls-20" d="M180.28,355.12H142.35a2.24,2.24,0,0,1,.64-2h37.22C180.25,354.33,180.28,355.12,180.28,355.12Z"/><path class="cls-19" d="M140,341.11a87.28,87.28,0,0,1-5.38,11.62c-1,1.6-1.93,2.64-2.59,2.39-2.34-.88-25.78-20.81-23.54-22.27a3.82,3.82,0,0,1,1.51-.44,45.3,45.3,0,0,1,8.55.35c2.68.27,5.18.58,6.48.58,3.3,0,3.74-1,3.74-1a5.77,5.77,0,0,0,1.62,2C133.31,337.11,139.13,341.33,140,341.11Z"/><path class="cls-20" d="M130.41,334.36a10.86,10.86,0,0,1-11.17.56,2.22,2.22,0,0,1-.67-2.16c2.68.27,5.18.58,6.48.58,3.3,0,3.74-1,3.74-1A5.77,5.77,0,0,0,130.41,334.36Z"/><path class="cls-20" d="M134.64,352.73c-1,1.6-1.93,2.64-2.59,2.39-2.34-.88-25.78-20.81-23.54-22.27a3.82,3.82,0,0,1,1.51-.44Z"/><path class="cls-17" d="M204.63,231c-1.83,2.55-5.12,6.45-7.82,6.06l-.33-.06c-5.16-.91-35.48-8.51-36.92-8.8s-11.66-.38-11.08-1.45,6.42-4.47,8-4.39,7.69,1.86,13.81,1.66,22.17,0,22.17,0l.78-1.34,1.15-2C194,226.65,201.2,231.49,204.63,231Z"/><path class="cls-15" d="M204.63,253.16s-1.4,7.44,4.05,9.92"/><path class="cls-15" d="M201.77,259.14s-36,15.36-37.75,20.13,9.16,56.43,9.16,56.43"/><path class="cls-21" d="M232.89,261.47c0,.59-5.83,14.2-10.73,16.15s-34.39-.2-34.39-.2L173.18,287l3.06,28.73s-6.17-32.81-6.17-34.95c0-1.84,40.75-13.55,51.49-25.8,4.2.66,7.25.91,7.25.91S232.89,260.89,232.89,261.47Z"/><path class="cls-18" d="M213.68,226.66c-2.53,3.58-6.6,8.13-9.47,12.26q.48-1.08,1-2.34c1.91-4.51,1.92-14.13,1.91-22.42l8.73-5.78S217.77,220.87,213.68,226.66Z"/><path class="cls-22" d="M206.22,229.91c-.37.34-.76.68-1.14,1a2.11,2.11,0,0,1-.45.1c-3.43.48-10.59-4.36-10.27-10.3a8.18,8.18,0,0,1,.95-2.48c2.93-5.91,11.74-19.07,13.36-18.46,0,0,5.67.88,7.2,8.61C217.32,215.64,212.12,224.45,206.22,229.91Z"/><path class="cls-18" d="M226.29,255.57c-1.25-.14-2.88-.36-4.73-.64a76.74,76.74,0,0,1-16.17-4.09c4.4-.15,13.82-3.05,15-24.62a106.88,106.88,0,0,0,2.38,12.5C224.17,244.41,225.54,250.41,226.29,255.57Z"/><path class="cls-18" d="M224,184.43a16,16,0,0,0-1.07,1.4,28.47,28.47,0,0,0-4.52,2.9,3.25,3.25,0,0,0-2.05-1.2l3.88-4.89A20.86,20.86,0,0,0,224,184.43Z"/><path class="cls-18" d="M204.63,231c-1.83,2.55-5.12,6.45-7.82,6.06l-.33-.06c-3.34-4.83-3.47-11.16-3.27-14.32l1.15-2C194,226.65,201.2,231.49,204.63,231Z"/><path class="cls-18" d="M233.19,172.15c-.34.79-.73,1.61-1.17,2.44a16.44,16.44,0,0,0-1.54,6.31,9.74,9.74,0,0,0-1.19-.82,21.25,21.25,0,0,0-5.33,4.35h0c-3.57-1.28-7.5-4-7.75-5.62-.35-2.34,2.49-6.33,0-6.81s-3.83,3.7-3.83,3.7c-2,.21-2.77-3.22-6.13-3.22a5.89,5.89,0,0,0-1.39.18,10,10,0,0,0-3.85,2.12s3.78-5.31,9.72-4.24c0,0-.87-1.65-4.86-1.46,8.36-2.72,13.71-1.65,16.28,1.36C224.25,172.92,229.18,176,233.19,172.15Z"/><path class="cls-12" d="M250.23,287H221.05s23.15-6.81,23.15-52.71c0-.59,0-1.17,0-1.75-.23-30.67-6.79-47.59-14.87-52.41a35,35,0,0,1,10.34-3.92,51.37,51.37,0,0,1,6.44-1c20-2,35.94,5.79,37.84,14.66S274.15,287,250.23,287Z"/><path class="cls-13" d="M244.2,234.24c0,45.9-23.15,52.71-23.15,52.71H173.21l2-1.41,12.6-8.12,25.28-1.75c1.36-5.64,5.06-5.83,10.7-6.42,3.28-.34,3.6-5.88,2.6-13.2a167.57,167.57,0,0,0-3.62-17.33,106.88,106.88,0,0,1-2.38-12.5,109.17,109.17,0,0,1-.9-13.48,113.83,113.83,0,0,1,2.34-23.91c.12-.58.24-1.14.36-1.67,0,0,0,0,0-.06a12.07,12.07,0,0,1,1.8-2.66h0a21.25,21.25,0,0,1,5.33-4.35,10.67,10.67,0,0,1,1.2.82c7.52,5.73,13.44,22.45,13.67,51.59C244.2,233.07,244.2,233.65,244.2,234.24Z"/><path class="cls-12" d="M235,355.12H200.53a1.24,1.24,0,0,1-.76-2.22l8.61-6.75a15.77,15.77,0,0,0,6.06-12.44V287h6.61v46.76a15.78,15.78,0,0,0,6.07,12.44l8.61,6.75A1.24,1.24,0,0,1,235,355.12Z"/><g class="cls-23"><path class="cls-24" d="M261.24,176.88s.25.64.66,1.93"/><path class="cls-25" d="M263.06,182.79a161.15,161.15,0,0,1,3.9,20.53c3.13,24.15,0,58.06-21.06,79.53"/><path class="cls-24" d="M244.42,284.32c-.49.47-1,.94-1.5,1.39"/></g><path class="cls-21" d="M221.05,287v12.77a46.8,46.8,0,0,1-6.61,2.79V287Z"/><path class="cls-21" d="M230.2,267.11c-1.56,4.87-11.27,4-12.45,7.59-2.5,7.63-3.89,4.27-13.51,5.25-5.5.55-9.49,4.08-11.9,7H173.21l2-1.41,12.6-8.12,25.28-1.75c1.36-5.64,5.06-5.83,10.7-6.42,3.28-.34,3.6-5.88,2.6-13.2a167.57,167.57,0,0,0-3.62-17.33,106.88,106.88,0,0,1-2.38-12.5,109.17,109.17,0,0,1-.9-13.48C223.22,232.24,231.35,263.51,230.2,267.11Z"/><path class="cls-21" d="M244.2,234.24c0-.59,0-1.17,0-1.75-.23-30.67-6.79-47.59-14.87-52.41a35,35,0,0,1,10.34-3.92c-1.34,1.92-2.73,4.81-2.07,7.9,1.17,5.45,14.4,26.46,9.34,60.1-3.65,24.28-2.44,36.91,1.37,42.79H221.05S244.2,280.14,244.2,234.24Z"/><path class="cls-18" d="M77.22,209.24a14.3,14.3,0,0,1-.31,3H67.53a29.36,29.36,0,0,1-10-10.9c2.52,2.73,6.81,6.07,11.18,7.08C72.55,209.26,75.39,208.89,77.22,209.24Z"/><path class="cls-6" d="M99,172c-1,3.8-5.85,11.18-10.24,19.09-4.8,8.63-9.09,17.87-7.41,23.74a12.92,12.92,0,0,1,.61,3.33c0,2.55-1.93,1.76-3.88.31a35.33,35.33,0,0,1-4-3.64l.15-11.38s-6.45-5.93-1.16-18.89c.34-.82.72-1.67,1.16-2.55,7.29-14.74,18.22-30.2,7.87-34.58C96.41,146.53,101.22,164,99,172Z"/><g class="cls-26"><path d="M82.11,147.4a10.63,10.63,0,0,1,6.49,4.67,13.75,13.75,0,0,1,1,1.8,17.06,17.06,0,0,1,.71,1.92,15.28,15.28,0,0,1,.47,2l.18,1,.06,1a25.22,25.22,0,0,1-1.85,8c-1,2.56-2,5.06-3.19,7.55-2.27,5-4.73,9.84-6.89,14.83a66.73,66.73,0,0,0-2.86,7.62,25.8,25.8,0,0,0-.86,3.93,8.66,8.66,0,0,0,.27,3.87h0a.4.4,0,0,1-.25.52.41.41,0,0,1-.52-.25h0a9.42,9.42,0,0,1-.26-4.24,26,26,0,0,1,.93-4,69.42,69.42,0,0,1,3-7.66c2.24-5,4.76-9.84,7.09-14.77,1.17-2.46,2.3-4.94,3.28-7.48a25.44,25.44,0,0,0,1.93-7.87l0-1-.16-1a14.92,14.92,0,0,0-.45-2,16.2,16.2,0,0,0-.68-1.92,13.38,13.38,0,0,0-1-1.79A10.59,10.59,0,0,0,82.11,147.4Z"/></g><path class="cls-22" d="M92.46,195c-4.37,11.52,0,20.26-6.56,21.51-3,.57-4.33-1.66-4.88-4.24a23.57,23.57,0,0,1-.22-6.62A22.19,22.19,0,0,1,84.26,200,13.83,13.83,0,0,1,92.46,195Z"/><path class="cls-27" d="M77.22,209.24c0,2.68-.63,5-1.87,6.15a3.32,3.32,0,0,1-.36.32c-3.1,2.52-5.08-2.08-5.08-2.08s-8.25-4.07-12.35-12.33c-3.13-6.34-3.83-15.17,3.55-26.51,1.08,8.08,5.51,13.58,9.89,18.8h0l1.63,1.94A22.41,22.41,0,0,1,77.22,209.24Z"/><g class="cls-26"><path d="M61.11,174.79a35.76,35.76,0,0,0-.56,10.57,22.81,22.81,0,0,0,3.24,10c1.83,3,4.38,5.51,6.69,8.22a20.18,20.18,0,0,1,3,4.47,10.62,10.62,0,0,1,1,5.36.42.42,0,0,1-.45.38.41.41,0,0,1-.37-.44h0a9.79,9.79,0,0,0-.83-5A19.84,19.84,0,0,0,70,203.93c-2.23-2.72-4.76-5.29-6.57-8.39a23.15,23.15,0,0,1-3.09-10.16A35.86,35.86,0,0,1,61.11,174.79Z"/></g><g class="cls-23"><path d="M92.47,195c-1.26,1.45-2.42,3-3.54,4.53s-2.16,3.15-3.11,4.81a30.2,30.2,0,0,0-4,10.55v0a.39.39,0,0,1-.46.34.41.41,0,0,1-.35-.46h0a30.56,30.56,0,0,1,4.49-10.65c1-1.64,2.14-3.2,3.3-4.73S91.16,196.36,92.47,195Z"/></g><path class="cls-12" d="M89.81,215.08,87,232.27a1.54,1.54,0,0,1-1.5,1.25H68.07a1.54,1.54,0,0,1-1.51-1.25l-2.28-14-.52-3.24a1.54,1.54,0,0,1,1.51-1.81h23A1.53,1.53,0,0,1,89.81,215.08Z"/><path class="cls-13" d="M92.46,218.59H61.11l.83-4.69a2.07,2.07,0,0,1,2-1.7H89.62a2.06,2.06,0,0,1,2,1.7Z"/><path class="cls-18" d="M80.8,205.61A23.58,23.58,0,0,0,81,212.2h-4.1a14.3,14.3,0,0,0,.31-3,22.41,22.41,0,0,0-4.59-13.7L71,193.6h0a26,26,0,0,1,2.08-9.06c.24,4.13,1.26,11.32,5.38,12.08,3.14.57,7.22-2.54,10.33-5.55-1.65,3-3.23,6-4.53,8.93A22.19,22.19,0,0,0,80.8,205.61Z"/><path class="cls-18" d="M78.48,233.52H68.07a1.54,1.54,0,0,1-1.51-1.25l-2.23-13.68h9a25.86,25.86,0,0,0,.19,8.26A12.27,12.27,0,0,0,78.48,233.52Z"/><rect class="cls-8" x="108.76" y="50.79" width="52.58" height="41.15" rx="3.99"/><path class="cls-7" d="M121,65.34v4.43a.65.65,0,0,0,.64.65h2.45a.64.64,0,0,0,.64-.65V65.34a.65.65,0,0,1,.65-.64h.23a.65.65,0,0,1,.65.64v12a.65.65,0,0,1-.65.65h-.23a.65.65,0,0,1-.65-.65V72.44a.64.64,0,0,0-.64-.64h-2.45a.64.64,0,0,0-.64.64v4.94a.65.65,0,0,1-.64.65h-.24a.64.64,0,0,1-.64-.65v-12a.64.64,0,0,1,.64-.64h.24A.64.64,0,0,1,121,65.34Z"/><path class="cls-7" d="M129.54,66.07H128.4a.64.64,0,0,1-.64-.65v-.08a.64.64,0,0,1,.64-.64h5.1a.64.64,0,0,1,.64.64v.08a.65.65,0,0,1-.64.65h-1.15a.64.64,0,0,0-.64.64V77.38a.65.65,0,0,1-.64.65h-.24a.64.64,0,0,1-.64-.65V66.71A.64.64,0,0,0,129.54,66.07Z"/><path class="cls-7" d="M143.61,72.29c-.1-1.76-.2-3.71-.14-5.22h-.08c-.3,1.49-.65,3.07-1.07,4.63L140.68,78h-1l-1.56-6c-.43-1.7-.83-3.34-1.09-4.89H137c0,1.57-.08,3.42-.16,5.32l-.23,5A.65.65,0,0,1,136,78h-.07a.64.64,0,0,1-.64-.68l.71-12a.65.65,0,0,1,.64-.61h.54a.64.64,0,0,1,.62.48l1.44,5.61c.45,1.76.79,3.06,1.07,4.59h.06c.25-1.53.55-2.79,1-4.59l1.39-5.6a.63.63,0,0,1,.62-.49h.59a.65.65,0,0,1,.64.61l.7,12a.64.64,0,0,1-.64.68h-.13a.65.65,0,0,1-.65-.62Z"/><path class="cls-7" d="M148,64.7h.24a.64.64,0,0,1,.64.64V76.1a.64.64,0,0,0,.64.64H152a.64.64,0,0,1,.64.64h0A.65.65,0,0,1,152,78h-4a.65.65,0,0,1-.64-.65v-12A.64.64,0,0,1,148,64.7Z"/><path class="cls-8" d="M177.68,54.31a1.89,1.89,0,0,0,2.07-2.12,24.29,24.29,0,0,0-.18-2.58,26,26,0,0,1-.19-2.67,3.51,3.51,0,0,1,3.83-3.88h.36v1.57h-.45c-1.28,0-1.79.91-1.79,2.28a18.51,18.51,0,0,0,.18,2.31c.06.79.15,1.51.15,2.24,0,2.37-.79,3.19-2.09,3.55v.06c1.3.4,2.12,1.22,2.09,3.61,0,.76-.09,1.52-.15,2.28a19.47,19.47,0,0,0-.18,2.34c0,1.36.45,2.3,1.82,2.3h.42v1.58h-.39c-2,0-3.8-1-3.8-3.88a26.59,26.59,0,0,1,.19-2.7,26,26,0,0,0,.18-2.61,1.93,1.93,0,0,0-2.07-2.16Z"/><path class="cls-8" d="M208.62,55.83A1.92,1.92,0,0,0,206.56,58a26,26,0,0,0,.18,2.61,26.61,26.61,0,0,1,.18,2.7c0,2.88-1.79,3.88-3.79,3.88h-.4V65.6h.43c1.36-.15,1.82-.94,1.82-2.3,0-.82-.09-1.58-.15-2.34a19.45,19.45,0,0,1-.18-2.28c0-2.39.78-3.21,2.09-3.61V55c-1.31-.36-2.12-1.18-2.09-3.55a19.83,19.83,0,0,1,.18-2.24c.06-.73.15-1.49.15-2.31,0-1.37-.52-2.12-1.79-2.28h-.46V43.06h.37a3.51,3.51,0,0,1,3.82,3.88,26,26,0,0,1-.18,2.67,24.29,24.29,0,0,0-.18,2.58,1.88,1.88,0,0,0,2.06,2.12Z"/><polygon class="cls-4" points="198.21 58.04 198.21 52.2 193.15 49.28 188.1 52.2 188.1 58.04 193.15 60.96 198.21 58.04"/><path class="cls-4" d="M236.24,87.12a12.33,12.33,0,0,0-14.71,19.23l-1.85-.22a.41.41,0,0,0-.1.82l2.82.33a.42.42,0,0,0,.31-.08.41.41,0,0,0,.15-.28l.32-2.73a.4.4,0,0,0-.35-.45.41.41,0,0,0-.46.36l-.21,1.74a11.52,11.52,0,0,1,13.72-18,.42.42,0,0,0,.55-.19A.41.41,0,0,0,236.24,87.12Z"/><path class="cls-4" d="M225.62,109.77a12.33,12.33,0,0,0,14.71-19.23l1.85.22a.41.41,0,1,0,.1-.81l-2.82-.34a.4.4,0,0,0-.3.09A.44.44,0,0,0,239,90l-.32,2.73a.41.41,0,0,0,.36.46.41.41,0,0,0,.45-.36l.21-1.74A11.52,11.52,0,0,1,226,109a.41.41,0,0,0-.36.73Z"/><path class="cls-4" d="M335.08,132.75H261a2.45,2.45,0,0,1-2.45-2.45h0a2.45,2.45,0,0,1,2.45-2.44h74.07a2.44,2.44,0,0,1,2.44,2.44h0A2.45,2.45,0,0,1,335.08,132.75Z"/><path class="cls-6" d="M308.63,143.37H261a2.45,2.45,0,0,1-2.45-2.44h0a2.45,2.45,0,0,1,2.45-2.45h47.62a2.45,2.45,0,0,1,2.44,2.45h0A2.44,2.44,0,0,1,308.63,143.37Z"/><path class="cls-6" d="M308.63,154.78H261a2.45,2.45,0,0,1-2.45-2.44h0a2.45,2.45,0,0,1,2.45-2.45h47.62a2.45,2.45,0,0,1,2.44,2.45h0A2.44,2.44,0,0,1,308.63,154.78Z"/><path class="cls-6" d="M72.44,92.13H34a2.45,2.45,0,0,1-2.45-2.45h0A2.45,2.45,0,0,1,34,87.24H72.44a2.44,2.44,0,0,1,2.44,2.44h0A2.45,2.45,0,0,1,72.44,92.13Z"/><path class="cls-4" d="M57.91,102.75H34a2.45,2.45,0,0,1-2.45-2.44h0A2.45,2.45,0,0,1,34,97.86H57.91a2.45,2.45,0,0,1,2.44,2.45h0A2.44,2.44,0,0,1,57.91,102.75Z"/><path class="cls-4" d="M57.91,114.16H34a2.45,2.45,0,0,1-2.45-2.44h0A2.45,2.45,0,0,1,34,109.27H57.91a2.45,2.45,0,0,1,2.44,2.45h0A2.44,2.44,0,0,1,57.91,114.16Z"/><path class="cls-22" d="M301.71,269.35a119,119,0,0,1-8.26,18.51c-10.35,18.92-22.38,30.95-22.83,48.59a105.57,105.57,0,0,1-.73-35.55c1.67-10.63,5.47-22,13.24-31.55,21.62-26.59,18.41-50.76,18.41-50.76S312.38,238.42,301.71,269.35Z"/><g class="cls-23"><path d="M276.24,315.76a27.28,27.28,0,0,1,0-6.51,40.27,40.27,0,0,1,1.15-6.35,59.88,59.88,0,0,1,4.6-12c.93-1.94,2.05-3.78,3.14-5.62l3.48-5.38a75.5,75.5,0,0,0,5.66-11.39,111.7,111.7,0,0,0,4.05-12.11c1.13-4.1,2.06-8.27,2.79-12.47a115,115,0,0,0,1.53-12.69,61.89,61.89,0,0,0,.1-6.39,28.27,28.27,0,0,0-.3-3.18,9.85,9.85,0,0,0-.87-3.06,9.88,9.88,0,0,1,.92,3,28.28,28.28,0,0,1,.35,3.19,62.1,62.1,0,0,1,0,6.4A106.69,106.69,0,0,1,301.44,244c-.68,4.22-1.57,8.41-2.66,12.54a111.42,111.42,0,0,1-3.93,12.22,76.13,76.13,0,0,1-5.6,11.57l-3.45,5.39c-1.07,1.83-2.17,3.65-3.08,5.57a59.4,59.4,0,0,0-4.51,11.85,45.77,45.77,0,0,0-1.14,6.23,27.41,27.41,0,0,0,0,6.27v0a.42.42,0,0,1-.35.46A.41.41,0,0,1,276.24,315.76Z"/></g><path class="cls-18" d="M293.45,287.86c-10.35,18.92-22.38,30.95-22.83,48.59a105.57,105.57,0,0,1-.73-35.55C276.6,298.16,286,293.69,293.45,287.86Z"/><path class="cls-6" d="M276.63,355.12s-7.57-12.93,10.33-28.88,31.89-37.05,29.17-54.12c-17.11,19.89-62.62,48.08-49.79,83Z"/><g class="cls-23"><path d="M316.13,272.12a58.22,58.22,0,0,1-6.46,10.56,91.57,91.57,0,0,1-8.15,9.35,122.78,122.78,0,0,1-9.24,8.27,60.93,60.93,0,0,0-8.53,8.91,67,67,0,0,0-11.44,21.73,47.53,47.53,0,0,0-2.09,12.1,27.77,27.77,0,0,0,2,11.95.41.41,0,1,1-.75.33h0a28.38,28.38,0,0,1-2-12.31,48.08,48.08,0,0,1,2.21-12.25A67.37,67.37,0,0,1,283.43,309a61.17,61.17,0,0,1,8.65-8.9,122.5,122.5,0,0,0,9.3-8.18,91.45,91.45,0,0,0,8.21-9.26A57.79,57.79,0,0,0,316.13,272.12Z"/></g><path class="cls-22" d="M19.83,261.47S10.49,253,5.53,231.69c28.59,24.24,35.59,45.83,35.59,45.83Z"/><g class="cls-23"><path d="M5.53,231.69q6,8.53,11.65,17.27c1.89,2.91,3.75,5.85,5.54,8.83a92.28,92.28,0,0,1,5,9.18.42.42,0,0,1-.21.55.41.41,0,0,1-.54-.21h0v0a89.89,89.89,0,0,0-4.76-9.19q-2.61-4.5-5.36-8.92Q11.34,240.34,5.53,231.69Z"/></g><path class="cls-6" d="M40.54,273.43c-5.14-4.63-12.75-9.22-20-14.16-9.63-6.58-18.61-13.8-20.27-22.61-3.78,31.81,33.22,46.14,33.22,46.14l.08.1L47,302.51S52.5,284.23,40.54,273.43Z"/><g class="cls-23"><path d="M.27,236.66a24.52,24.52,0,0,0,2.55,10.2A31.1,31.1,0,0,0,9,255.38a51.54,51.54,0,0,0,8.38,6.44c3,1.93,6,3.79,8.89,5.78,5.84,4,11.43,8.6,15.34,14.6a36.74,36.74,0,0,1,5.81,20.31.42.42,0,0,1-.41.41.41.41,0,0,1-.41-.41h0a36,36,0,0,0-5.5-20c-3.79-6-9.28-10.59-15.06-14.6-2.9-2-5.89-3.91-8.83-5.87a52.34,52.34,0,0,1-8.35-6.54,31.42,31.42,0,0,1-6.14-8.63A24.78,24.78,0,0,1,.27,236.66Z"/></g><path class="cls-2" d="M304,369.32H55.36a7.09,7.09,0,0,1-7.09-7.1h0a7.09,7.09,0,0,1,7.09-7.1H304a7.1,7.1,0,0,1,7.1,7.1h0A7.1,7.1,0,0,1,304,369.32Z"/></g></g></g></svg>