<svg xmlns="http://www.w3.org/2000/svg" xmlns:xlink="http://www.w3.org/1999/xlink" viewBox="0 0 384 384"><defs><style>.cls-1{fill:none;}.cls-2{fill:#eaf9f8;}.cls-3{fill:#666;}.cls-4{fill:#f0b97d;}.cls-5{fill:#5fcea6;}.cls-6{fill:#fed198;}.cls-7{fill:#539b81;}.cls-8{fill:#807d7d;}.cls-9{fill:#fff;}.cls-10{fill:#fe8a50;}.cls-11{fill:#ecf0f1;}.cls-12{clip-path:url(#clip-path);}.cls-13{fill:#ffca4f;}</style><clipPath id="clip-path"><rect id="SVGID" class="cls-1" width="384" height="384"/></clipPath></defs><title>Asset 2</title><g id="Layer_2" data-name="Layer 2"><g id="graduate"><path class="cls-2" d="M192,384c105.75,0,192-86.25,192-192S297.75,0,192,0,0,86.25,0,192,86.25,384,192,384Z"/><path class="cls-3" d="M41.46,93.46l113.15,51.36,106.5-48.35L148,45.11,41.46,93.46Z"/><path class="cls-4" d="M128.75,211.53h45.07l3.66,38,11,8.1,57.87,13s8.6,4.73,11.14,18c1.6,8.4,5.81,50.48,9.17,80.29a192.2,192.2,0,0,1-228-61.34c1-8.75,1.89-15.76,2.5-18.95,2.12-11.14,11.14-18,11.14-18l62.2-13.32,10.58-7.81,3.65-38Z"/><path class="cls-5" d="M184.55,269.23c-10.88,12.71-47.21,18.2-67.22-3.52l34,101.07Z"/><path class="cls-6" d="M95,153.83c-14.13-2.51-2.08,39.71,8.24,33.42l5.55,16.27c5,14.66,17.58,28,27.16,38.58,3.74,4.12,26.65,4.05,30.36.15,10.61-11.16,23.22-23.69,27.95-38.81l5.07-16.19c10.34,6.29,22.37-35.93,8.24-33.42,1-32.87-22.26-64.75-56.28-64.9-34,.15-57.26,32-56.29,64.9Z"/><path class="cls-7" d="M114.52,257.34l-62.2,13.32s-9,6.84-11.14,18c-.61,3.2-1.5,10.21-2.5,18.95a192.19,192.19,0,0,0,228,61.35c-3.37-29.81-7.57-71.89-9.18-80.3-2.53-13.24-11.13-18-11.13-18l-57.87-13L151.29,366.78,114.52,257.33Z"/><path class="cls-3" d="M191.87,95.41c4-.47,18.42,12.71,20.15,28S210.43,154,210.43,154c-10.15-.49-7,15-9.16,17.48l-2.86.06-1.07-10.41c-12.65-7.92,5-39.23-7.66-42C168,137,135.92,143.6,107.91,139c-7.87,1,3.57,11,.25,22.42-2.44,4.27-1,11-1,11l-3.66.45s-2.31-19.3-9.37-19.22c-1.71-8.9-2.42-14.21-1.94-22.09,2.41-40.34,56.64-63.31,99.66-36.18Z"/><path class="cls-8" d="M92.27,97.62c25.65-19.54,96.52-19.92,119.41-.17l1.21,31.87c-39.95-11.85-81.18-10.77-122,1.22Z"/><path class="cls-9" d="M70.33,81.53l.18,56.52v1.75H67.19V82.6c.12-3.24,2.91-3.69,3.14-1.07Z"/><path class="cls-10" d="M62.76,148.24a135.65,135.65,0,0,1-3.34,28.88c-.17.86,2.87,3.7,3.45.86s0,.06,2.64.25,3.2-1.14,3.22-1.18.57,1.36,3.21,1.18,2-3.09,2.64-.25,3.62,0,3.45-.86a135.65,135.65,0,0,1-3.34-28.88c-.14-5.76-2.39-8.48-6-9.31-3.57.83-5.83,3.55-6,9.31Z"/><path class="cls-8" d="M68.8,138.93c5.92,0,6.09,3.75,5.79,7.23a9.94,9.94,0,0,0-11.58,0c-.21-4-.13-7.23,5.79-7.23Z"/><path class="cls-10" d="M286.13,189.14h79.73L384,269l-6.62,0-.16,28.2,6.83,0L384,302H276.17c-10.2-.79-9.29-18.93-9.84-23.78L275.41,197c0-3.61,3.79-7.88,10.72-7.88Z"/><path class="cls-7" d="M286.13,189.14h7.63L286.81,302H276.17c-12.5-1.42-13-21.3-8.92-32l8.16-73c0-3.61,3.79-7.88,10.72-7.88Z"/><path class="cls-9" d="M277.56,269H381.89a30.92,30.92,0,0,0,0,28.62H277.56c-11.19,0-11.19-28.62,0-28.62Z"/><path class="cls-11" d="M270,276.87H379.09c-.06.28-.12.57-.17.86H269.76l.21-.86Zm108.62,3c0,.28-.07.57-.1.86H269.28c0-.29.06-.58.1-.86Zm-.2,3c0,.29,0,.57,0,.86H269.17c0-.29,0-.57,0-.86Zm.11,3c0,.29.05.57.09.86H269.39c0-.29-.07-.57-.1-.86Zm.42,3,.18.86H270c-.08-.29-.15-.57-.21-.86Zm.73,3c.08.29.17.57.27.86H271.08c-.13-.28-.26-.57-.38-.86Zm1.05,3,.35.86H273.18a8,8,0,0,1-.77-.86Z"/><g class="cls-12"><path class="cls-13" d="M309.29,283.66h16.3v36.17L317.37,308l-8.08,11.8Z"/><path class="cls-9" d="M258.91,239.75l110.53-39.54c12.38-1,16.08,24.16,8,26.54l-108,40.53c-6.14,2.31-12.13-7.55-12.66-17.22-.29-5.14,1.11-5,7-7.27Z"/></g><path class="cls-11" d="M380.88,223a5.61,5.61,0,0,1-3.47,3.77l-108,40.52a5.62,5.62,0,0,1-5.44-.94c3.06.3,4.73-.1,7.65-2.85Z"/><path class="cls-13" d="M331.45,213.81c8.21,1.19,14.07,20.67,10,26.44l-14.92,5.6c2.7-9.14-3.2-24.37-11.39-26.19Z"/><path class="cls-13" d="M357.89,253.25l-16.47-13-14.92,5.6L339,260.34l5.75-8.61Z"/><path class="cls-11" d="M263,243.09l.72-.3c4.51.91,12.43,17.09,3.75,20.67-6.17,2.56-9-10.82-8.81-15.26,2.64-1.9,5.5,6.1,4.58,6.28l-1.83.36s0,3.5,1.83,3.74l7.08-2.29s-.57-10.31-7.32-13.2Z"/><path class="cls-11" d="M288.48,275h91.08a36.28,36.28,0,0,1,2.32-6v0H277.55c-10.35,0-11.12,24.51-2.31,28.17-3-8.44-.6-22.17,7.15-22.17Z"/></g></g></svg>