<svg xmlns="http://www.w3.org/2000/svg" viewBox="0 0 384 384"><defs><style>.cls-1{fill:#303e3c;}.cls-2{fill:#f7d04f;}.cls-3{fill:#ef9f35;}.cls-4{fill:#f9f6ed;}.cls-5{fill:#539b81;}</style></defs><title>Asset 1</title><g id="Layer_2" data-name="Layer 2"><g id="idea"><path class="cls-1" d="M192,0C86,0,0,86,0,192S86,384,192,384s192-86,192-192S298,0,192,0Zm10.19,250.59v35.17a13.51,13.51,0,0,1,10,22.61,13.5,13.5,0,0,1-10,22.6H129.85a13.51,13.51,0,0,1-10-22.6,13.51,13.51,0,0,1,10-22.61V250.59A85.9,85.9,0,0,1,166,86.84v39.7a13.56,13.56,0,1,0,0,20.07v30.65h32.46a13.56,13.56,0,1,0,25.5,0h27.94A85.91,85.91,0,0,1,202.19,250.59Zm98.64-95.93a13.56,13.56,0,1,1-25.5,0H242.88V124a13.56,13.56,0,1,1,0-20.08V64.24a85.89,85.89,0,0,1,85.89,85.9v4.52Z"/><rect class="cls-2" x="161.5" y="226.99" width="9.04" height="58.77"/><path class="cls-2" d="M188.62,213.43a4.52,4.52,0,1,0-9,0V218h4.52A4.52,4.52,0,0,0,188.62,213.43Z"/><path class="cls-2" d="M147.94,208.91a4.52,4.52,0,1,0,0,9h4.52v-4.52A4.52,4.52,0,0,0,147.94,208.91Z"/><path class="cls-2" d="M215.85,194.64a13.56,13.56,0,0,1-17.37-17.38H166V146.61a13.56,13.56,0,1,1,0-20.07V86.84a85.9,85.9,0,0,0-36.17,163.75v35.17h22.61V227h-4.52a13.56,13.56,0,1,1,13.56-13.56V218h9v-4.52A13.56,13.56,0,1,1,184.1,227h-4.52v58.77h22.61V250.59a85.91,85.91,0,0,0,49.73-73.33H224A13.57,13.57,0,0,1,215.85,194.64Z"/><path class="cls-3" d="M242.88,64.24v39.69a13.57,13.57,0,1,0,0,20.08v30.65h32.45a13.56,13.56,0,1,0,25.5,0h27.94v-4.52A85.89,85.89,0,0,0,242.88,64.24Zm33.77,32.32A66.06,66.06,0,0,0,264,90.42l3-8.5a71.54,71.54,0,0,1,14.47,7Zm27.26,36.71a63.54,63.54,0,0,0-18.09-29.56l6.15-6.6a72,72,0,0,1,20.57,33.72Z"/><path class="cls-4" d="M161.5,227h9v58.77h9V227h4.52a13.56,13.56,0,1,0-13.56-13.56V218h-9v-4.52A13.57,13.57,0,1,0,147.94,227h4.52v58.77h9Zm18.08-13.56A4.52,4.52,0,1,1,184.1,218h-4.52ZM152.46,218h-4.52a4.52,4.52,0,1,1,4.52-4.52Z"/><path class="cls-4" d="M264,90.42a66.06,66.06,0,0,1,12.66,6.14l4.79-7.64a71.54,71.54,0,0,0-14.47-7Z"/><path class="cls-4" d="M292,97.11l-6.15,6.6a63.54,63.54,0,0,1,18.09,29.56l8.63-2.44A72,72,0,0,0,292,97.11Z"/><path class="cls-5" d="M170.54,285.76H129.85a13.51,13.51,0,0,0-10,22.61,13.51,13.51,0,0,0,10,22.6h72.34a13.5,13.5,0,0,0,10-22.6,13.51,13.51,0,0,0-10-22.61H170.54Z"/></g></g></svg>