<svg xmlns="http://www.w3.org/2000/svg" viewBox="0 0 234.45 234.45"><defs><style>.cls-1{fill:#e4fcb0;}</style></defs><title>Asset 10</title><g id="Layer_2" data-name="Layer 2"><g id="Instagram"><path class="cls-1" d="M164.61,0H69.84A69.92,69.92,0,0,0,0,69.84v94.77a69.92,69.92,0,0,0,69.84,69.84h94.77a69.92,69.92,0,0,0,69.84-69.84V69.84A69.92,69.92,0,0,0,164.61,0Zm46.26,164.61a46.26,46.26,0,0,1-46.26,46.26H69.84a46.26,46.26,0,0,1-46.25-46.26V69.84A46.25,46.25,0,0,1,69.84,23.59h94.77a46.26,46.26,0,0,1,46.26,46.25Zm-93.64-108a60.64,60.64,0,1,0,60.63,60.64A60.7,60.7,0,0,0,117.23,56.59Zm0,97.69a37.06,37.06,0,1,1,37.05-37A37.05,37.05,0,0,1,117.23,154.28Zm75.28-97.23A14.53,14.53,0,1,1,178,42.52,14.53,14.53,0,0,1,192.51,57.05Z"/></g></g></svg>