<svg xmlns="http://www.w3.org/2000/svg" viewBox="0 0 234.45 234.45"><defs><style>.cls-1{fill:#e4fcb0;}</style></defs><title>Asset 9</title><g id="Layer_2" data-name="Layer 2"><g id="Pinterest"><path class="cls-1" d="M115.48,0C51.3,1-.49,54,0,118.14A117.24,117.24,0,0,0,66,222.7a3.26,3.26,0,0,0,2.4.19,3.31,3.31,0,0,0,2.35-3.29c-.28-7.54,0-15.61,1.47-22.09s7.31-31.06,11.14-47.27A57.91,57.91,0,0,0,84,126.18a49.55,49.55,0,0,1-.85-9.11c0-17.32,10.05-30.26,22.55-30.26,10.63,0,15.77,8,15.77,17.56,0,10.69-6.81,26.67-10.33,41.49-2.93,12.39,6.22,22.51,18.46,22.51,22.14,0,39.17-23.35,39.17-57.06,0-29.84-21.44-50.69-52-50.69-35.45,0-56.27,26.59-56.27,54.07,0,10.71,4.13,22.19,9.28,28.44a3.72,3.72,0,0,1,.86,3.57c-.94,3.94-3,12.4-3.46,14.13-.54,2.28-1.81,2.76-4.16,1.67-15.57-7.25-25.3-30-25.3-48.28,0-39.3,28.56-75.4,82.33-75.4,43.23,0,76.82,30.8,76.82,72,0,42.94-27.08,77.5-64.66,77.5-9.93,0-19.4-4.06-25-9.56a3.12,3.12,0,0,0-5.22,1.41c-2,7.46-5.12,19.54-6.14,23.46-1.84,7.07-5.71,15.3-9.59,22.46a3.33,3.33,0,0,0,2.11,4.8,117.66,117.66,0,0,0,30,3.59c61.51-.57,114.31-52.3,116.07-113.79A117.22,117.22,0,0,0,115.48,0Z"/></g></g></svg>