<svg xmlns="http://www.w3.org/2000/svg" viewBox="0 0 384 384"><defs><style>.cls-1{fill:#d8a8ce;}.cls-2{fill:#fad4ae;}.cls-3{fill:#3da69d;}.cls-4{fill:#fe973c;}.cls-5{fill:#f0fcb4;}.cls-6{fill:#d6f1ec;}</style></defs><title>Asset 4</title><g id="Layer_2" data-name="Layer 2"><g id="teamwork"><path class="cls-1" d="M384,192c0,106-86,192-192,192S0,298,0,192,86,0,192,0,384,86,384,192Z"/><path class="cls-2" d="M249.14,85.27s2.43,23.58-7.86,33.56c-10.28,10.28-9.07,19.65-9.07,19.65a6.45,6.45,0,0,1-2.72,4.23c-2.72,1.82-7,1.22-7.86-1.51-2.11-5.74-1.21-13,.91-20.25L195,151.79a6.31,6.31,0,0,1-9.07.6,6.78,6.78,0,0,1-.9-9.68l23.58-27.51a.64.64,0,1,0-.91-.91l-26.3,30.24c-2.12,2.42-5.75,3.32-8.47,1.51-.3,0-.3-.3-.6-.3a6.66,6.66,0,0,1-.61-9.37l25.1-28.73a.64.64,0,0,0-.91-.91L176.58,128.8a6.29,6.29,0,0,1-9.68,0,6.44,6.44,0,0,1,.31-8.46l21.16-24.19a.56.56,0,0,0,0-.91.57.57,0,0,0-.91,0l-13.6,15.12a6.15,6.15,0,0,1-8.47.61,6.31,6.31,0,0,1-.6-9.08l17.53-19.35a158.47,158.47,0,0,1,25.1-22.07L215.28,55s5.44-3.63,11.79-8.77L254,73.78c-2.72,4.53-4.84,8.76-4.84,11.49Z"/><path class="cls-3" d="M250.05,9.07,220.12,39.61l39,39.61,43.23-44.15a188.33,188.33,0,0,0-52.31-26Z"/><path class="cls-2" d="M219.52,281.8,202,301.15a144.36,144.36,0,0,1-25.1,22.08L169,328.67s-5.44,3.63-11.79,8.77l-26.91-27.52c3-4.53,5.14-8.77,4.84-11.49,0,0-2.42-23.58,7.86-33.56,10.28-10.28,9.07-19.66,9.07-19.66a6.5,6.5,0,0,1,2.72-4.23c2.72-1.81,7-1.21,7.86,1.52,2.12,5.74,1.21,13-.9,20.25L189,232.21a6.31,6.31,0,0,1,9.07-.6,6.78,6.78,0,0,1,.9,9.68L175.37,268.8a.64.64,0,1,0,.91.91l26.3-30.24c2.12-2.42,5.75-3.32,8.47-1.51.3,0,.3.3.6.3a6.67,6.67,0,0,1,.61,9.37l-25.1,28.73a.64.64,0,0,0,.91.91l19.35-22.07a6.29,6.29,0,0,1,9.68,0,6.44,6.44,0,0,1-.31,8.46l-21.16,24.19a.64.64,0,1,0,.9.91l13.31-15.12a6.13,6.13,0,0,1,8.46-.61,5.61,5.61,0,0,1,1.22,8.77Z"/><path class="cls-4" d="M81.34,348.93a192.52,192.52,0,0,0,52.31,26l29.93-30.54-39-39.61Z"/><path class="cls-2" d="M337.74,227.07,310.22,254c-4.53-3-8.76-5.14-11.49-4.84,0,0-23.58,2.43-33.56-7.85-10.28-10.29-19.65-9.08-19.65-9.08a6.5,6.5,0,0,1-4.24-2.72c-1.81-2.72-1.21-7,1.52-7.86,5.74-2.11,13-1.21,20.25.91L232.21,195a6.31,6.31,0,0,1-.6-9.07,6.77,6.77,0,0,1,9.67-.9l27.52,23.58a.64.64,0,1,0,.91-.91l-30.24-26.3c-2.42-2.12-3.33-5.75-1.51-8.47,0-.3.3-.3.3-.6a6.67,6.67,0,0,1,9.37-.61l28.73,25.1a.64.64,0,0,0,.91-.91L255.2,176.58a6.29,6.29,0,0,1,0-9.68,6.44,6.44,0,0,1,8.46.31l24.19,21.16a.56.56,0,0,0,.91,0,.57.57,0,0,0,0-.91l-15.12-13.6a6.15,6.15,0,0,1-.61-8.47,6.31,6.31,0,0,1,9.08-.6l19.35,17.53a144.71,144.71,0,0,1,22.07,25.1l5.44,7.86s3.63,5.14,8.77,11.79Z"/><path class="cls-5" d="M348.93,302.66a192.52,192.52,0,0,0,26-52.31l-30.54-29.93-39.61,39Z"/><path class="cls-2" d="M152.69,198.35a6.76,6.76,0,0,1-9.67.91L115.5,175.67a.64.64,0,0,0-.91.91l30.24,26.31c2.42,2.11,3.33,5.74,1.51,8.46,0,.3-.3.3-.3.61a6.67,6.67,0,0,1-9.37.6l-28.73-25.1a.64.64,0,0,0-.91.91l22.08,19.35a6.3,6.3,0,0,1,0,9.68,6.46,6.46,0,0,1-8.47-.3L96.45,195.93a.64.64,0,1,0-.9.91l15.11,13.3a6.14,6.14,0,0,1,.61,8.47,6,6,0,0,1-8.77.6L82.85,201.68a158,158,0,0,1-22.08-25.1l-5.44-7.86s-3.63-5.44-8.77-11.79L74.08,130c4.53,3,8.77,5.14,11.49,4.83,0,0,23.58-2.42,33.56,7.86,10.28,10.29,19.65,9.08,19.65,9.08a6.5,6.5,0,0,1,4.24,2.72c1.81,2.72,1.21,7-1.52,7.86-5.74,2.11-13,1.21-20.25-.91L151.78,189a7,7,0,0,1,.91,9.37Z"/><path class="cls-6" d="M9.07,134l30.54,29.93,39.61-39L35.07,81.34A194.32,194.32,0,0,0,9.07,134Z"/></g></g></svg>