<svg xmlns="http://www.w3.org/2000/svg" viewBox="0 0 234.45 195.02"><defs><style>.cls-1{fill:#e4fcb0;}</style></defs><title>Asset 11</title><g id="Layer_2" data-name="Layer 2"><g id="Twitter"><path class="cls-1" d="M230.73,22.68a92.4,92.4,0,0,1-16.17,5.46A50.53,50.53,0,0,0,227.87,7,2.65,2.65,0,0,0,224,3.87a93.4,93.4,0,0,1-24.72,10.21,6.13,6.13,0,0,1-1.54.19,6.59,6.59,0,0,1-4.33-1.65A50.52,50.52,0,0,0,160,0a54,54,0,0,0-16,2.47,49,49,0,0,0-33,35.28,54,54,0,0,0-1.2,18.61,1.81,1.81,0,0,1-.45,1.42,1.89,1.89,0,0,1-1.4.63h-.18A132.55,132.55,0,0,1,16.63,9.74a2.64,2.64,0,0,0-4.33.33,50.6,50.6,0,0,0,8.22,61.45A45.21,45.21,0,0,1,9,67.05a2.64,2.64,0,0,0-3.92,2.29A50.6,50.6,0,0,0,34.59,116H33.51a45.44,45.44,0,0,1-8.52-.81,2.64,2.64,0,0,0-3,3.4A50.64,50.64,0,0,0,62,153,93.31,93.31,0,0,1,9.75,168.88H3.91A3.87,3.87,0,0,0,.12,171.8,4,4,0,0,0,2,176.22,138.7,138.7,0,0,0,71.75,195c21.43,0,41.47-4.25,59.57-12.64a131.64,131.64,0,0,0,43.59-32.66A143,143,0,0,0,201.6,105a141.15,141.15,0,0,0,9.07-48.93v-.77a8.63,8.63,0,0,1,3.23-6.7,99.89,99.89,0,0,0,20.09-22,2.64,2.64,0,0,0-3.26-3.89Z"/></g></g></svg>